<?xml version="1.0" encoding="utf-8"?>
<!-- Generator: Adobe Illustrator 21.0.0, SVG Export Plug-In . SVG Version: 6.00 Build 0)  -->
<svg version="1.1" id="圖層_1" xmlns:sketch="http://www.bohemiancoding.com/sketch/ns"
	 xmlns="http://www.w3.org/2000/svg" xmlns:xlink="http://www.w3.org/1999/xlink" x="0px" y="0px" viewBox="0 0 50 50"
	 style="enable-background:new 0 0 50 50;" xml:space="preserve">
<style type="text/css">
	.st0{fill:#969696;}
</style>
<title></title>
<path class="st0" d="M25,0C11.2,0,0,11.2,0,25s11.2,25,25,25s25-11.2,25-25S38.8,0,25,0z M25,47C12.8,47,3,37.2,3,25S12.8,3,25,3
	s22,9.8,22,22S37.2,47,25,47z"/>
<polygon class="st0" points="37,32 37,17 28.3,25.5 "/>
<polygon class="st0" points="13,32 21.7,25.5 13,17 "/>
<polygon class="st0" points="22.9,26.6 13,33 37,33 27.1,26.6 25,28.6 "/>
<polygon class="st0" points="13.7,17 25,26.1 36.3,17 "/>
</svg>
