<?xml version="1.0" encoding="utf-8"?>
<!-- Generator: Adobe Illustrator 21.0.0, SVG Export Plug-In . SVG Version: 6.00 Build 0)  -->
<svg version="1.1" id="圖層_1" xmlns="http://www.w3.org/2000/svg" xmlns:xlink="http://www.w3.org/1999/xlink" x="0px" y="0px"
	 viewBox="0 0 100 100" style="enable-background:new 0 0 100 100;" xml:space="preserve">
<style type="text/css">
	.st0{fill:#6A6A6A;}
</style>
<path class="st0" d="M74.4,55.7c-1.3,1.2-2,1.9-2.7,2.6c-8.2,7.4-16.5,14.9-24.7,22.3c-2.4,2.2-2.5,4.5-0.4,6.9
	c0.4,0.5,0.9,0.9,1.3,1.4c3.3,3.6,4.9,3.7,8.6,0.4c12.8-11.5,25.5-23,38.3-34.5c3.4-3.1,3.5-6,0.1-9.1c-5.2-4.7-10.4-9.4-15.7-14.1
	c-7.8-7-15.5-14-23.3-21c-2.9-2.6-4.9-2.5-7.6,0.4c-0.4,0.5-0.9,0.9-1.3,1.4c-2.7,3-2.6,5.1,0.4,7.8c7.5,6.7,15,13.5,22.4,20.2
	c0.7,0.6,1.3,1.3,2,1.9c-0.1,0.2-0.1,0.4-0.2,0.5c-0.9,0-1.8,0-2.8,0c-19.9,0-39.8,0-59.7,0c-0.8,0-1.6,0-2.4,0
	c-2.2,0.2-3.5,1.4-3.8,3.6c-0.1,0.9-0.1,1.9-0.1,2.9c0,5.3,1,6.4,6.2,6.4c20.6,0,41.3,0,61.9,0C71.8,55.7,72.7,55.7,74.4,55.7z"/>
<path class="st0" d="M74.4,55.7c-1.6,0-2.5,0-3.5,0c-20.6,0-41.3,0-61.9,0c-5.2,0-6.2-1-6.2-6.4c0-1,0-1.9,0.1-2.9
	c0.3-2.2,1.5-3.5,3.8-3.6c0.8-0.1,1.6,0,2.4,0c19.9,0,39.8,0,59.7,0c0.9,0,1.8,0,2.8,0c0.1-0.2,0.1-0.4,0.2-0.5
	c-0.7-0.6-1.3-1.3-2-1.9c-7.5-6.7-15-13.5-22.4-20.2c-3-2.7-3.1-4.7-0.4-7.8c0.4-0.5,0.9-0.9,1.3-1.4c2.6-2.9,4.7-3,7.6-0.4
	c7.8,7,15.5,14,23.3,21c5.2,4.7,10.5,9.4,15.7,14.1c3.4,3.1,3.3,6-0.1,9.1c-12.8,11.5-25.5,23-38.3,34.5c-3.6,3.3-5.3,3.2-8.6-0.4
	c-0.4-0.5-0.9-0.9-1.3-1.4c-2.1-2.4-2-4.7,0.4-6.9c8.2-7.4,16.5-14.9,24.7-22.3C72.4,57.6,73.1,56.9,74.4,55.7z"/>
</svg>
