<?xml version="1.0" encoding="utf-8"?>
<!-- Generator: Adobe Illustrator 21.0.0, SVG Export Plug-In . SVG Version: 6.00 Build 0)  -->
<svg version="1.1" id="圖層_1" xmlns:sketch="http://www.bohemiancoding.com/sketch/ns"
	 xmlns="http://www.w3.org/2000/svg" xmlns:xlink="http://www.w3.org/1999/xlink" x="0px" y="0px" viewBox="0 0 50 50"
	 style="enable-background:new 0 0 50 50;" xml:space="preserve">
<style type="text/css">
	.st0{fill:#969696;}
</style>
<title></title>
<path class="st0" d="M25,0C11.2,0,0,11.2,0,25s11.2,25,25,25s25-11.2,25-25S38.8,0,25,0z M25,47C12.8,47,3,37.2,3,25S12.8,3,25,3
	s22,9.8,22,22S37.2,47,25,47z"/>
<path class="st0" d="M36.8,19.2c-0.3-1.3-1.3-2.3-2.6-2.4c-3-0.3-6.1-0.3-9.1-0.3s-6.1,0-9.1,0.3c-1.2,0.1-2.3,1.1-2.6,2.4
	C13,21.1,13,23.1,13,25s0,4,0.4,5.8c0.3,1.3,1.3,2.3,2.6,2.4c3,0.3,6.1,0.3,9.1,0.3s6.1,0,9.1-0.3c1.2-0.1,2.3-1.1,2.6-2.4
	c0.4-1.9,0.4-3.9,0.4-5.8S37.2,21,36.8,19.2z M22.8,28.3v-7.8l6.8,3.9L22.8,28.3z"/>
</svg>
